<svg xmlns="http://www.w3.org/2000/svg" width="170" height="170" viewBox="0 0 170 170">
  <g id="instagram_social_media_logo_icon-icons.com_59058" transform="translate(-5 -9)">
    <g id="Official_copy_2" transform="translate(37.813 45.871)">
      <path id="Trazado_333" data-name="Trazado 333" d="M101.415,9.317H22.476A12.952,12.952,0,0,0,9.317,22.476v78.939a12.957,12.957,0,0,0,13.159,13.159h78.939a12.961,12.961,0,0,0,13.159-13.159V22.476A12.957,12.957,0,0,0,101.415,9.317ZM62.024,41.274c11.671,0,21.137,9.167,21.137,20.475S73.7,82.224,62.024,82.224c-11.663,0-21.129-9.174-21.129-20.475S50.362,41.274,62.024,41.274Zm39.391,56.85c0,2.307-.984,3.292-3.292,3.292H25.76c-2.3,0-3.292-.984-3.292-3.292V52.078l8.2,1.78a30.581,30.581,0,0,0-1.355,9.033c0,17.49,14.647,31.689,32.7,31.689s32.7-14.191,32.7-31.689a30.881,30.881,0,0,0-1.355-9.033l8.04-1.78V98.123Zm0-59.2a3.29,3.29,0,0,1-3.292,3.292H84.964a3.29,3.29,0,0,1-3.292-3.292V25.76a3.29,3.29,0,0,1,3.292-3.292H98.123a3.29,3.29,0,0,1,3.292,3.292Z" transform="translate(-9.317 -9.317)" fill="#fff"/>
    </g>
    <g id="Elipse_35" data-name="Elipse 35" transform="translate(5 9)" fill="none" stroke="#fff" stroke-width="10">
      <circle cx="85" cy="85" r="85" stroke="none"/>
      <circle cx="85" cy="85" r="80" fill="none"/>
    </g>
  </g>
</svg>
