<svg xmlns="http://www.w3.org/2000/svg" width="170" height="170" viewBox="0 0 170 170">
  <g id="whatsapp_social_media_logo_icon-icons.com_59063" transform="translate(-13.533 -6.969)">
    <g id="Official_copy_2" transform="translate(53.915 44.126)">
      <g id="Grupo_39" data-name="Grupo 39">
        <path id="Trazado_332" data-name="Trazado 332" d="M50.14,57.532a25.331,25.331,0,0,1-5.906-7.678,1.8,1.8,0,0,1,0-1.855c1.014-1.348,1.181-1.438,2.279-2.7.758-.931,1.348-1.772,1.1-2.535l-3.794-9.873c-.34-.674-1.348-.758-2.529-.847a15.163,15.163,0,0,0-2.869.167c-1.688.591-5.148,5.148-5.566,8.441-.931,7.171,5.566,16.71,12.062,22.621,6.5,6,16.537,11.651,23.624,10.046,3.287-.758,7.511-4.558,7.845-6.329a8.435,8.435,0,0,0-.084-2.869c-.084-1.181-.34-2.022-1.014-2.362l-8.6-3.967c-.764-.424-1.521-.084-2.279.847-.925,1.265-1.354,1.772-2.446,3.12-.591.758-1.014,1.265-1.688,1.348a5.06,5.06,0,0,1-1.939-.251,27.174,27.174,0,0,1-8.191-5.321ZM21.8,87.831l4.892-12.408A35.706,35.706,0,1,1,53.767,87.831a35.107,35.107,0,0,1-21.088-6.92Zm-6-12.152L9.055,102.685,33.18,91.708A44.663,44.663,0,1,0,9.055,52.031,44.967,44.967,0,0,0,15.8,75.679Z" transform="translate(-9.055 -7.385)" fill="#fff"/>
      </g>
    </g>
    <g id="Elipse_36" data-name="Elipse 36" transform="translate(13.533 6.969)" fill="none" stroke="#fff" stroke-width="10">
      <circle cx="85" cy="85" r="85" stroke="none"/>
      <circle cx="85" cy="85" r="80" fill="none"/>
    </g>
  </g>
</svg>
