<svg xmlns="http://www.w3.org/2000/svg" width="822" height="822" viewBox="0 0 822 822">
  <g id="graphicdesign2_78420" transform="translate(0.042 0.12)">
    <circle id="Elipse_33" data-name="Elipse 33" cx="411" cy="411" r="411" transform="translate(-0.042 -0.12)" fill="#ff9400"/>
    <path id="Trazado_295" data-name="Trazado 295" d="M353.267,438.423H211.948l12.838-72.042H340.4Z" transform="translate(128.195 221.663)" fill="#e6e5e5"/>
    <path id="Trazado_296" data-name="Trazado 296" d="M348.429,438.423,335.56,366.381H219.949L312.4,438.423Z" transform="translate(133.033 221.663)" fill="#d9d8d7"/>
    <g id="Grupo_32" data-name="Grupo 32" transform="translate(156.412 541.459)">
      <path id="Trazado_297" data-name="Trazado 297" d="M405.362,421.847h-217V417.9a6.623,6.623,0,0,1,6.625-6.625h203.73a6.624,6.624,0,0,1,6.641,6.625v3.944Z" transform="translate(-42.474 -292.652)" fill="#fff"/>
      <path id="Trazado_298" data-name="Trazado 298" d="M606.28,337.349v34.213a12.427,12.427,0,0,1-12.408,12.372H109.821a12.427,12.427,0,0,1-12.376-12.372V337.349Z" transform="translate(-97.445 -337.349)" fill="#fff"/>
    </g>
    <path id="Trazado_299" data-name="Trazado 299" d="M606.275,464.424V139.56a12.457,12.457,0,0,0-12.413-12.392H109.8A12.434,12.434,0,0,0,97.452,139.56V464.424Z" transform="translate(58.971 77.034)" fill="#242d3c"/>
    <rect id="Rectángulo_34" data-name="Rectángulo 34" width="457.367" height="285.837" transform="translate(182.119 229.919)" fill="#fff"/>
    <rect id="Rectángulo_35" data-name="Rectángulo 35" width="352.049" height="263.735" transform="translate(193.165 240.945)" fill="#f2f2f2"/>
    <g id="Grupo_33" data-name="Grupo 33" transform="translate(193.165 240.945)">
      <rect id="Rectángulo_36" data-name="Rectángulo 36" width="435.265" height="18.419" fill="#d9d8d7"/>
      <rect id="Rectángulo_37" data-name="Rectángulo 37" width="45.149" height="231.228" transform="translate(0 32.522)" fill="#d9d8d7"/>
    </g>
    <rect id="Rectángulo_38" data-name="Rectángulo 38" width="30.414" height="125.831" transform="translate(200.532 280.828)" fill="#fff"/>
    <rect id="Rectángulo_39" data-name="Rectángulo 39" width="45.149" height="14.088" transform="translate(193.165 259.378)" fill="#242d3c"/>
    <rect id="Rectángulo_40" data-name="Rectángulo 40" width="269.481" height="14.088" transform="translate(275.723 259.378)" fill="#cccbca"/>
    <rect id="Rectángulo_41" data-name="Rectángulo 41" width="83.242" height="99.36" transform="translate(545.193 273.467)" fill="#d9d8d7"/>
    <rect id="Rectángulo_42" data-name="Rectángulo 42" width="68.507" height="51.567" transform="translate(552.56 280.828)" fill="#fff"/>
    <rect id="Rectángulo_43" data-name="Rectángulo 43" width="83.242" height="117.774" transform="translate(545.193 386.921)" fill="#d9d8d7"/>
    <rect id="Rectángulo_44" data-name="Rectángulo 44" width="68.507" height="84.795" transform="translate(552.56 394.283)" fill="#fff"/>
    <g id="Grupo_34" data-name="Grupo 34" transform="translate(545.193 259.378)">
      <rect id="Rectángulo_45" data-name="Rectángulo 45" width="83.242" height="14.088" fill="#242d3c"/>
      <rect id="Rectángulo_46" data-name="Rectángulo 46" width="83.242" height="14.088" transform="translate(0 113.439)" fill="#242d3c"/>
    </g>
    <g id="Grupo_35" data-name="Grupo 35" transform="translate(558.921 287.163)">
      <rect id="Rectángulo_47" data-name="Rectángulo 47" width="55.845" height="4.442" transform="translate(0 113.481)" fill="#d9d8d7"/>
      <rect id="Rectángulo_48" data-name="Rectángulo 48" width="55.845" height="4.442" transform="translate(0 123.127)" fill="#d9d8d7"/>
      <rect id="Rectángulo_49" data-name="Rectángulo 49" width="55.845" height="4.453" fill="#d9d8d7"/>
      <rect id="Rectángulo_50" data-name="Rectángulo 50" width="55.845" height="4.453" transform="translate(0 9.661)" fill="#d9d8d7"/>
      <rect id="Rectángulo_51" data-name="Rectángulo 51" width="55.845" height="4.453" transform="translate(0 19.331)" fill="#d9d8d7"/>
    </g>
    <rect id="Rectángulo_52" data-name="Rectángulo 52" width="17.184" height="231.228" transform="translate(528.019 273.467)" fill="#cccbca"/>
    <rect id="Rectángulo_53" data-name="Rectángulo 53" width="267.615" height="209.136" transform="translate(249.381 284.513)" fill="#fff"/>
    <rect id="Rectángulo_54" data-name="Rectángulo 54" width="20.889" height="20.889" transform="translate(483.92 460.59)" fill="#ff6d3b"/>
    <rect id="Rectángulo_55" data-name="Rectángulo 55" width="20.889" height="20.889" transform="translate(453.073 460.59)" fill="#242d3c"/>
    <rect id="Rectángulo_56" data-name="Rectángulo 56" width="20.884" height="20.889" transform="translate(422.172 460.59)" fill="#21d8de"/>
    <rect id="Rectángulo_57" data-name="Rectángulo 57" width="20.279" height="20.279" transform="translate(210.666 427.04)" fill="#242d3c"/>
    <rect id="Rectángulo_58" data-name="Rectángulo 58" width="20.269" height="20.269" transform="translate(200.532 416.916)" fill="#ff6d3b"/>
    <g id="Grupo_36" data-name="Grupo 36" transform="translate(209.134 289.442)">
      <rect id="Rectángulo_59" data-name="Rectángulo 59" width="13.203" height="13.198" fill="#d9d8d7"/>
      <rect id="Rectángulo_60" data-name="Rectángulo 60" width="13.203" height="13.198" transform="translate(0 21.8)" fill="#d9d8d7"/>
      <rect id="Rectángulo_61" data-name="Rectángulo 61" width="13.203" height="13.198" transform="translate(0 43.607)" fill="#d9d8d7"/>
    </g>
    <path id="Trazado_300" data-name="Trazado 300" d="M179.051,298.829,227.9,214.214l48.865,84.615Z" transform="translate(108.306 129.662)" fill="#ff6d3b"/>
    <circle id="Elipse_34" data-name="Elipse 34" cx="42.313" cy="42.313" r="42.313" transform="translate(394.329 343.872)" fill="#242d3c"/>
    <rect id="Rectángulo_62" data-name="Rectángulo 62" width="69.54" height="69.54" transform="translate(367.1 316.627)" fill="#21d8de"/>
    <path id="Trazado_301" data-name="Trazado 301" d="M288.04,214.214a42.314,42.314,0,0,0-42.313,42.307H288.04Z" transform="translate(148.618 129.662)" fill="#fff"/>
  </g>
</svg>
