<svg xmlns="http://www.w3.org/2000/svg" xmlns:xlink="http://www.w3.org/1999/xlink" width="840.726" height="852.327" viewBox="0 0 840.726 852.327">
  <defs>
    <linearGradient id="linear-gradient" x1="1.051" y1="0.893" x2="-0.375" y2="-0.229" gradientUnits="objectBoundingBox">
      <stop offset="0" stop-color="#ff9400"/>
      <stop offset="0.369" stop-color="#ffb34a"/>
      <stop offset="0.761" stop-color="#9e1460"/>
      <stop offset="1" stop-color="#e7267a"/>
    </linearGradient>
    <linearGradient id="linear-gradient-2" x1="1.913" y1="1.194" x2="1.296" y2="-0.604" gradientUnits="objectBoundingBox">
      <stop offset="0" stop-color="#6fc7da"/>
      <stop offset="1" stop-color="#9e1460"/>
    </linearGradient>
    <linearGradient id="linear-gradient-3" x1="1.143" y1="0.558" x2="0.199" y2="0.447" gradientUnits="objectBoundingBox">
      <stop offset="0" stop-color="#6fc7da"/>
      <stop offset="0.693" stop-color="#9e1460"/>
      <stop offset="1" stop-color="#e7267a"/>
    </linearGradient>
  </defs>
  <g id="iconfinder-social-media-4341269_120580" transform="translate(-9.587 -6.003)">
    <path id="Trazado_237" data-name="Trazado 237" d="M252.6,109.061c-17.052,7.162-83.042,34.615-119.874,105.721-7.844,15.176-44.676,86.282-17.563,149.032C151.138,447.027,260.61,426.736,310.912,505c43.141,67.354-46.381,133.515-7.844,213.658,20.121,41.777,66.5,76.733,109.3,79.973C546.227,808.695,786.656,520.35,688.95,294.073,617.673,129.694,390.544,51.6,252.6,109.061Z" transform="translate(67.526 59.439)" fill="url(#linear-gradient)"/>
    <g id="Grupo_10" data-name="Grupo 10" transform="translate(160.822 205.467)">
      <g id="Grupo_9" data-name="Grupo 9">
        <g id="Grupo_8" data-name="Grupo 8">
          <g id="Grupo_7" data-name="Grupo 7">
            <path id="Trazado_238" data-name="Trazado 238" d="M530.407,215.265l-246.4-91.4a14.276,14.276,0,0,0-18.416,8.526L99.168,580.343a14.276,14.276,0,0,0,8.526,18.416l246.4,91.4a14.276,14.276,0,0,0,18.416-8.526L538.932,233.51A14.154,14.154,0,0,0,530.407,215.265Z" transform="translate(-98.279 -122.979)" fill="#2d548d"/>
          </g>
        </g>
      </g>
    </g>
    <path id="Trazado_239" data-name="Trazado 239" d="M368.729,491q-9.208,0-18.927-.512c-95.66-5.286-173.757-47.915-208.884-113.906-56.1-105.38-1.023-252.2,83.383-298.406C266.93,54.647,303.932,55.329,327.464,60.1c40.242,8.014,69.912,26.6,83.554,52.178,14.665,27.453,6.821,53.2-1.535,80.314-7.5,24.384-15.176,49.45-5.968,76.562,8.185,24.213,29.5,31.716,52.178,39.731,23.02,8.185,46.892,16.54,59.681,42.97,13.471,27.965,11.766,66.161-3.751,89.181C490.479,471.732,434.549,491,368.729,491ZM300.863,59.421c-20.974,0-47.063,4.774-75.539,20.462h0C141.77,125.752,87.2,271.374,142.793,375.731c34.786,65.479,112.371,107.6,207.349,112.883,72.982,4.092,137.267-15.517,159.945-48.6,15.176-22.338,16.881-59.852,3.581-87.135-12.448-25.748-35.809-33.933-58.488-41.947-23.02-8.185-44.846-15.858-53.372-40.924-9.378-27.794-1.535-53.2,5.968-77.927,8.185-26.771,16.029-52.178,1.705-78.95-13.3-25.066-42.629-43.311-82.189-51.155A134.871,134.871,0,0,0,300.863,59.421Zm-76.051,19.61Z" transform="translate(76.552 36.269)" fill="#aaaad5" opacity="0.09"/>
    <g id="Grupo_11" data-name="Grupo 11" transform="translate(201.953 238.072)">
      <path id="Trazado_240" data-name="Trazado 240" d="M442.08,179.614,414.8,197.859,176.584,357.8,138.9,383.212l51.837-139.995,37.855-25.407,85.429-57.464L341.3,142.1Z" transform="translate(-110.765 -142.1)" fill="#eeedf3" opacity="0.2"/>
      <path id="Trazado_241" data-name="Trazado 241" d="M507.94,181.4l-27.283,18.245-320.4,215.193h0L122.4,440.075l18.416-49.28h0L178.5,365.559v-.171L445.19,186.516,472.472,168.1Z" transform="translate(-122.4 -123.765)" fill="#eeedf3" opacity="0.2"/>
    </g>
    <path id="Trazado_242" data-name="Trazado 242" d="M530.411,215.265l-5.457-2.046-35.468-13.13L470.729,193.1,369.954,155.754l-85.941-31.887a14.34,14.34,0,0,0-18.416,8.526l-46.21,124.478L167.379,396.866l-9.719,26.089h0l-18.245,49.279L99.172,580.684a17.506,17.506,0,0,0-.853,4.093A14.113,14.113,0,0,0,107.7,599.1l45.7,17.052,34.445,12.789L278.9,662.7l33.251,12.277L354.1,690.5a14.4,14.4,0,0,0,18.416-8.355L535.867,242.207l3.069-8.185C541.665,226.178,537.913,217.993,530.411,215.265ZM507.05,243.059l-3.41,9.378L362.962,631.5a7.9,7.9,0,0,1-10.061,4.6l-30.864-11.425-37.343-13.812-77.074-28.647-35.3-13.13-28.135-10.4a7.481,7.481,0,0,1-4.945-6.991,6.488,6.488,0,0,1,.512-3.069l37.855-101.8h0l18.245-49.28h0l9.719-26.089,52.008-139.995,26.43-71.106a7.778,7.778,0,0,1,9.89-4.6L343.012,174l100.776,37.343,18.757,6.991,35.468,13.13,4.6,1.705A7.691,7.691,0,0,1,507.05,243.059Z" transform="translate(62.539 82.488)" fill="#eeedf3"/>
    <g id="Grupo_13" data-name="Grupo 13" transform="translate(277.689 682.297)">
      <g id="Grupo_12" data-name="Grupo 12">
        <path id="Trazado_243" data-name="Trazado 243" d="M175.656,428.849h0a13.586,13.586,0,0,1-8.014-17.393h0a13.586,13.586,0,0,1,17.393-8.014h0a13.586,13.586,0,0,1,8.014,17.393h0A13.573,13.573,0,0,1,175.656,428.849Z" transform="translate(-166.816 -402.616)" fill="#c9c7d9"/>
      </g>
    </g>
    <g id="Grupo_17" data-name="Grupo 17" transform="translate(70.66 6.003)">
      <path id="Trazado_244" data-name="Trazado 244" d="M415.327,22.432,71.393,136.338a15.787,15.787,0,0,0-10.061,19.951L94.754,256.894A15.787,15.787,0,0,0,114.7,266.954L148.637,255.7l16.54-5.457c4.263,2.728,14.835,9.89,19.1,12.448a7.873,7.873,0,0,0,10.913-3.581c2.046-4.6,6.309-16.54,8.014-21.315L286.756,210l171.882-56.953A15.787,15.787,0,0,0,468.7,133.1L435.277,32.493A15.718,15.718,0,0,0,415.327,22.432Z" transform="translate(-34.737 5.016)" fill="#3f3f3f" opacity="0.1"/>
      <g id="Grupo_16" data-name="Grupo 16">
        <g id="Grupo_15" data-name="Grupo 15">
          <path id="Trazado_245" data-name="Trazado 245" d="M425.993,6.85l-369,122.261A17.053,17.053,0,0,0,46.25,150.6L82.059,258.534a17.053,17.053,0,0,0,21.485,10.743l36.32-12.107,17.734-5.8c4.433,3.069,15.858,10.572,20.462,13.3a8.537,8.537,0,0,0,11.766-3.922c2.046-4.945,6.821-17.9,8.526-22.849l89.692-29.67,184.5-61.216a17.053,17.053,0,0,0,10.743-21.485L447.478,17.593A16.983,16.983,0,0,0,425.993,6.85Z" transform="translate(-45.403 -6.003)" fill="url(#linear-gradient-2)"/>
          <path id="Trazado_246" data-name="Trazado 246" d="M123.463,123.365A18.728,18.728,0,0,0,125,108.189l-2.9-8.7c-3.24-9.72-13.471-15.688-23.361-12.789A18.765,18.765,0,0,0,86.29,110.576l3.069,9.549a18.635,18.635,0,0,0,10.231,11.254,39.925,39.925,0,0,0-15.858,34.274A8.05,8.05,0,0,0,94.3,172.645l57.635-19.1a8.163,8.163,0,0,0,4.433-11.936A38.44,38.44,0,0,0,123.463,123.365Z" transform="translate(-18.43 50.387)" fill="#fff"/>
          <g id="Grupo_14" data-name="Grupo 14" transform="translate(162.478 82.083)">
            <path id="Trazado_247" data-name="Trazado 247" d="M222.045,54.753,148.552,79.137a11.673,11.673,0,0,0-7.332,14.494l11.936,36.15a11.673,11.673,0,0,0,14.494,7.332l7.162-2.387s13.641,9.208,18.245,11.936a6.826,6.826,0,0,0,9.549-3.24c2.217-4.945,7.673-20.462,7.673-20.462l30.864-10.231a11.673,11.673,0,0,0,7.332-14.494l-11.936-36.15A11.393,11.393,0,0,0,222.045,54.753Z" transform="translate(-140.688 -54.141)" fill="#fff"/>
            <path id="Trazado_248" data-name="Trazado 248" d="M155.232,90.622a4.7,4.7,0,0,1-5.627-3.069,4.588,4.588,0,0,1,3.069-5.968L212.355,61.8a4.653,4.653,0,0,1,5.968,3.069,4.588,4.588,0,0,1-3.069,5.968l-59.681,19.78Z" transform="translate(-134.579 -48.915)" fill="#e2e1e1"/>
            <path id="Trazado_249" data-name="Trazado 249" d="M158.232,99.822a4.7,4.7,0,0,1-5.627-3.069,4.588,4.588,0,0,1,3.069-5.968L215.355,71a4.652,4.652,0,0,1,5.968,3.069,4.588,4.588,0,0,1-3.069,5.968l-59.681,19.78C158.573,99.652,158.4,99.822,158.232,99.822Z" transform="translate(-132.464 -42.427)" fill="#e2e1e1"/>
            <path id="Trazado_250" data-name="Trazado 250" d="M161.332,104.409a4.7,4.7,0,0,1-5.627-3.069,4.588,4.588,0,0,1,3.069-5.968L185.716,86.5a4.719,4.719,0,0,1,5.968,3.069,4.588,4.588,0,0,1-3.069,5.968l-26.942,8.867Z" transform="translate(-130.278 -31.497)" fill="#e2e1e1"/>
          </g>
          <path id="Trazado_251" data-name="Trazado 251" d="M307.2,85.126a34.884,34.884,0,0,0-12.959-17.563l-2.558-7.844a28.139,28.139,0,0,0-30.693-18.927l-.682-2.217a4.853,4.853,0,1,0-9.208,3.069l.682,2.217a28.03,28.03,0,0,0-13.3,33.421l2.558,7.844h0a35.343,35.343,0,0,0,0,21.826l1.194,3.41a3.115,3.115,0,0,0,4.092,2.046l13.13-4.433a2.735,2.735,0,0,0,1.876,2.387,28.1,28.1,0,0,0,17.563,0,27.422,27.422,0,0,0,14.153-10.4,2.878,2.878,0,0,0,.171-3.069l13.13-4.433a3.115,3.115,0,0,0,2.046-4.092Z" transform="translate(89.763 14.622)" fill="#fff"/>
        </g>
        <path id="Trazado_252" data-name="Trazado 252" d="M257.343,81.393a14.829,14.829,0,1,1-18.757-9.378A14.752,14.752,0,0,1,257.343,81.393Z" transform="translate(83.687 40.01)" fill="#e83c3b"/>
      </g>
    </g>
    <g id="Grupo_19" data-name="Grupo 19" transform="translate(708.502 289.005)">
      <path id="Trazado_253" data-name="Trazado 253" d="M533.259,196.678l-94.3-11.254a7.322,7.322,0,0,0-8.185,6.48l-11.254,94.3a7.322,7.322,0,0,0,6.48,8.185l94.3,11.254a7.322,7.322,0,0,0,8.185-6.48l11.254-94.3A7.416,7.416,0,0,0,533.259,196.678Z" transform="translate(-419.466 -162.522)" fill="#3f3f3f" opacity="0.1"/>
      <g id="Grupo_18" data-name="Grupo 18" transform="translate(11.772)">
        <path id="Trazado_254" data-name="Trazado 254" d="M539.475,301.956,429.32,288.826a3.2,3.2,0,0,1-2.9-3.751l13.13-110.154a3.2,3.2,0,0,1,3.751-2.9l110.154,13.13a3.2,3.2,0,0,1,2.9,3.751l-13.13,110.154A3.437,3.437,0,0,1,539.475,301.956Z" transform="translate(-426.369 -171.969)" fill="#f8aa09"/>
        <path id="Trazado_255" data-name="Trazado 255" d="M433.3,271.9l10.913-91.227a2.2,2.2,0,0,1,2.217-1.876l91.227,10.913a2.2,2.2,0,0,1,1.876,2.217l-10.913,91.227a2.2,2.2,0,0,1-2.217,1.876l-91.227-10.913A1.985,1.985,0,0,1,433.3,271.9Z" transform="translate(-421.482 -167.152)" fill="#fbba38"/>
        <path id="Trazado_256" data-name="Trazado 256" d="M482.5,215l-10.572,8.355a4.559,4.559,0,0,1-6.309-.682h0a4.541,4.541,0,0,0-6.309-.682L443.8,234.268a4.541,4.541,0,0,0,2.217,8.014l1.876.171,36.661,4.433,20.633,2.387a4.487,4.487,0,0,0,4.092-7.162l-20.462-26.43A4.559,4.559,0,0,0,482.5,215Z" transform="translate(-415.267 -142.307)" fill="#ee9f05"/>
        <path id="Trazado_257" data-name="Trazado 257" d="M461.14,207.819a7.815,7.815,0,1,1-6.821-8.7A7.844,7.844,0,0,1,461.14,207.819Z" transform="translate(-412.831 -152.86)" fill="#ee9f05"/>
      </g>
    </g>
    <g id="Grupo_21" data-name="Grupo 21" transform="translate(9.587 554.808)">
      <path id="Trazado_258" data-name="Trazado 258" d="M211.622,355.168a21.589,21.589,0,0,0-27.112-14.153L45.368,385.008A21.589,21.589,0,0,0,31.215,412.12l28.647,90.545a21.589,21.589,0,0,0,27.112,14.153l13.641-4.263s25.407,17.563,34.274,22.849a12.936,12.936,0,0,0,18.075-5.8c4.263-9.378,14.835-38.366,14.835-38.366l58.317-18.416a21.589,21.589,0,0,0,14.153-27.112Z" transform="translate(4.957 -319.274)" fill="#3f3f3f" opacity="0.1"/>
      <g id="Grupo_20" data-name="Grupo 20">
        <path id="Trazado_259" data-name="Trazado 259" d="M175.011,328.958l-149.2,47.233A23.315,23.315,0,0,0,10.632,405.35l30.693,97.2a23.315,23.315,0,0,0,29.159,15.176l14.494-4.6s27.283,18.927,36.661,24.555a13.943,13.943,0,0,0,19.439-6.139c4.6-10.061,15.858-41.265,15.858-41.265l62.58-19.78a23.315,23.315,0,0,0,15.176-29.159L204,344.134A22.858,22.858,0,0,0,175.011,328.958Z" transform="translate(-9.587 -327.85)" fill="url(#linear-gradient-3)"/>
        <path id="Trazado_260" data-name="Trazado 260" d="M160.98,364.063,39.912,402.43a7.414,7.414,0,0,1-9.378-4.945,7.55,7.55,0,0,1,4.945-9.378L156.546,349.74a7.414,7.414,0,0,1,9.378,4.945A7.55,7.55,0,0,1,160.98,364.063Z" transform="translate(4.956 -312.652)" fill="#edb7d5"/>
        <path id="Trazado_261" data-name="Trazado 261" d="M167.28,384.163,46.212,422.53a7.414,7.414,0,0,1-9.378-4.945,7.55,7.55,0,0,1,4.945-9.379L162.846,369.84a7.414,7.414,0,0,1,9.378,4.945A7.7,7.7,0,0,1,167.28,384.163Z" transform="translate(9.398 -298.478)" fill="#edb7d5"/>
        <path id="Trazado_262" data-name="Trazado 262" d="M107.178,416.457,52.612,433.679a7.5,7.5,0,0,1-4.433-14.323l54.566-17.222a7.5,7.5,0,1,1,4.433,14.323Z" transform="translate(13.911 -275.695)" fill="#edb7d5"/>
      </g>
    </g>
    <g id="Grupo_23" data-name="Grupo 23" transform="translate(275.304 321.334)">
      <path id="Trazado_263" data-name="Trazado 263" d="M370.18,241.529a10.092,10.092,0,0,0-18.416-2.9l-19.1,30.864-10.743-44.846A16.822,16.822,0,0,0,301.632,212.2L178.348,241.529A16.822,16.822,0,0,0,165.9,261.82L195.229,385.1a16.822,16.822,0,0,0,20.292,12.448L338.8,368.223a16.822,16.822,0,0,0,12.448-20.292L340.51,303.086l30.864,19.1a10,10,0,0,0,15.006-10.913Z" transform="translate(-165.417 -176.27)" fill="#3f3f3f" opacity="0.1"/>
      <g id="Grupo_22" data-name="Grupo 22" transform="translate(1.044)">
        <path id="Trazado_264" data-name="Trazado 264" d="M366,219.7l-20.462,33.251L334.11,204.862a18.28,18.28,0,0,0-21.826-13.471L179.962,222.937a18.28,18.28,0,0,0-13.471,21.826l31.546,132.322a18.28,18.28,0,0,0,21.826,13.471L352.185,359.01a18.28,18.28,0,0,0,13.471-21.826L354.231,289.1l33.251,20.462c8.185,5.116,18.416-2.387,16.2-11.766l-17.9-74.857A10.861,10.861,0,0,0,366,219.7Z" transform="translate(-166.029 -190.929)" fill="#e83b5b"/>
        <path id="Trazado_265" data-name="Trazado 265" d="M210.9,228.7l48.427,29.67L229.486,306.8" transform="translate(-134.387 -164.294)" fill="#fff"/>
      </g>
    </g>
    <g id="Grupo_24" data-name="Grupo 24" transform="translate(366.332 577.574)">
      <rect id="Rect치ngulo_32" data-name="Rect치ngulo 32" width="203.768" height="115.099" transform="translate(0.029 32.053) rotate(-9.051)" fill="#e83c3b"/>
      <path id="Trazado_266" data-name="Trazado 266" d="M328.443,414.111,420.011,341.3,218.8,373.357Z" transform="translate(-218.8 -341.131)" fill="#ee7375"/>
    </g>
    <g id="Grupo_31" data-name="Grupo 31" transform="translate(450.397 73.487)">
      <path id="Trazado_267" data-name="Trazado 267" d="M363.409,460.918h115.1a6.407,6.407,0,0,0,6.309-6.309h0a6.407,6.407,0,0,0-6.309-6.309h-115.1a6.406,6.406,0,0,0-6.309,6.309h0A6.19,6.19,0,0,0,363.409,460.918Z" transform="translate(-205.339 238.41)" fill="#e2e2e1"/>
      <g id="Grupo_30" data-name="Grupo 30">
        <g id="Grupo_25" data-name="Grupo 25" transform="translate(185.779 634.702)">
          <path id="Trazado_268" data-name="Trazado 268" d="M385.357,455.655,379.9,422.4l15.006-4.6,2.387,35.468Z" transform="translate(-375.04 -417.8)" fill="#d7dde9"/>
          <path id="Trazado_269" data-name="Trazado 269" d="M399.814,437.354a5.605,5.605,0,0,1,2.728,1.194c5.286,4.433,21.485,12.277,29.67,13.471,8.867,1.364,9.378,5.627-3.24,5.627-12.448,0-21.656-1.194-27.112-1.023-5.627.171-4.092,1.023-17.734,1.023-10.572,0-7.162-13.471-3.41-19.61a5.079,5.079,0,0,1,4.945-2.728Z" transform="translate(-377.05 -405.467)" fill="#ed9558"/>
        </g>
        <g id="Grupo_26" data-name="Grupo 26" transform="translate(133.033 615.092)">
          <path id="Trazado_270" data-name="Trazado 270" d="M354.8,432.73l20.8-26.43,13.471,8.014L364.69,439.892Z" transform="translate(-339.994 -406.3)" fill="#d7dde9"/>
          <path id="Trazado_271" data-name="Trazado 271" d="M373.882,430.519a5.352,5.352,0,0,1,1.023,2.728c.341,6.821,5.627,24.555,11.936,30.182,6.309,5.8,2.217,7.162-8.014,2.387-11.254-5.286-13.812-16.711-17.734-20.633s-3.581-2.387-12.789-12.448c-7.162-7.673,4.945-14.323,12.107-15.858a4.612,4.612,0,0,1,5.286,1.876Z" transform="translate(-346.117 -398.973)" fill="#ed9558"/>
        </g>
        <g id="Grupo_28" data-name="Grupo 28" transform="translate(0 8.22)">
          <g id="Grupo_27" data-name="Grupo 27" transform="translate(123.387 57.131)">
            <path id="Trazado_272" data-name="Trazado 272" d="M349.741,92.2s-4.092,27.283,3.751,39.9S362.53,146.6,362.53,146.6" transform="translate(-334.668 -78.053)" fill="#ed8c61"/>
            <path id="Trazado_273" data-name="Trazado 273" d="M375.655,164.552a13.839,13.839,0,0,1-19.269-4.945c-.171-.171-1.535-2.558-8.867-14.153-5.115-8.185-6.821-19.268-6.991-28.988A105.573,105.573,0,0,1,341.722,96a14.228,14.228,0,1,1,28.135,4.263,84.393,84.393,0,0,0-.852,13.3,63.549,63.549,0,0,0,1.023,12.277,13.2,13.2,0,0,0,1.535,4.6c8.014,12.789,9.208,14.835,9.208,14.835A14.031,14.031,0,0,1,375.655,164.552Z" transform="translate(-340.46 -83.904)" fill="#f6ad86"/>
          </g>
          <path id="Trazado_274" data-name="Trazado 274" d="M337.793,302.978c2.9-40.754-10.743-141.871-17.734-182.113a10.028,10.028,0,0,1,9.89-11.766h83.724a10.232,10.232,0,0,1,9.719,7.332c9.549,36.491,15.688,186.376,15.688,186.376H337.793Z" transform="translate(-231.56 -9.005)" fill="#e8e8e8"/>
          <path id="Trazado_275" data-name="Trazado 275" d="M450.152,218.043c-1.364-7.673-10.742-27.283-21.144-47.745-11.084-21.656-23.531-44.505-29.329-54.736a12.057,12.057,0,0,0-21.144,11.6c8.867,16.029,17.9,32.91,25.919,48.086,9.037,17.393,17.734,27.965,21.315,36.491-6.48,5.627-22.679,6.139-35.468,5.286-3.581-.341-17.222-1.364-26.26,6.991-3.581,3.24-7.673,9.208-7.332,18.586.341,6.48,1.194,9.037,6.991,11.936a16.182,16.182,0,0,0,8.014,1.194c6.65-.853,7.162-4.433,7.162-12.107,0-5.457,2.9-10.913,2.9-10.913s19.439,4.775,35.638,6.821,22.849-1.194,28.817-7.844A16.307,16.307,0,0,0,450.152,218.043Z" transform="translate(-205.629 -8.817)" fill="#f6ad86"/>
          <path id="Trazado_276" data-name="Trazado 276" d="M335.916,288.62s-12.277-22.508-4.434-65.82H432.6s1.364,32.91-.852,65.82Z" transform="translate(-225.25 71.173)" fill="#3a63a9"/>
          <path id="Trazado_277" data-name="Trazado 277" d="M420.421,170.329l-11.766,2.387-12.618,2.558c-7.844-15.176-17.052-32.228-25.919-48.086a12.057,12.057,0,0,1,21.144-11.6C396.89,125.824,409.338,148.674,420.421,170.329Z" transform="translate(-197.214 -8.848)" fill="#ed8c61"/>
          <path id="Trazado_278" data-name="Trazado 278" d="M377.572,118.461a11.828,11.828,0,0,0-14.494-8.7c-28.988,7.162-49.109,13.641-63.091,19.61-32.228,13.641-31.887,23.7-31.887,28.817.171,5.8,1.364,17.222,70.765,42.459,0,2.046-2.217,9.89-3.581,12.448-3.24,5.8.17,11.425,3.581,17.052,1.194,1.876,3.922,4.263,7.162,4.263,4.263,0,9.549-5.457,10.231-9.89,2.558-16.2,2.217-25.748,1.364-27.624h0c0-.171-.171-.341-.171-.512-.341-.512-.512-1.023-.853-1.535-.171-.341-.512-.512-.682-.853-.341-.341-.512-.682-.853-.853a9.371,9.371,0,0,0-1.535-1.194c-.171,0-.171-.171-.341-.171a18.644,18.644,0,0,0-2.558-1.364C327.1,180.7,305.1,165.013,295.383,158.192a105.648,105.648,0,0,1,14.153-6.48c14.835-5.968,36.661-12.959,59-18.416A12.476,12.476,0,0,0,377.572,118.461Z" transform="translate(-268.1 -8.818)" fill="#f6ad86"/>
          <path id="Trazado_279" data-name="Trazado 279" d="M423.748,165.228l-16.2,3.069-12.618,2.387h0l-10.743,2.046c-13.812-27.112-17.052-33.251-17.563-42.459-.512-10.4,2.217-15.688,9.037-19.439a14.01,14.01,0,0,1,19.1,5.457A456.069,456.069,0,0,1,423.748,165.228Z" transform="translate(-198.665 -9.033)" fill="#e8e8e8"/>
          <path id="Trazado_280" data-name="Trazado 280" d="M473.429,413.133c-1.535,9.89-6.821,20.633-14.323,33.762-12.618,21.826-31.887,46.21-49.28,66.5-12.107,14.153-23.19,26.43-30.182,34.786-3.069,3.581-5.457,6.48-6.821,8.355L358.5,538.122c5.286-7.5,10.231-17.563,16.37-26.942.17-.171.341-.512.512-.682,11.6-17.563,24.043-37.343,33.933-55.418.341-.682.682-1.194,1.023-1.876,10.572-19.1,18.416-35.979,19.951-45.869,2.728-17.563-23.7-72.47-49.791-120.9-2.9-5.627-5.968-11.084-8.867-16.37a14.219,14.219,0,0,1-1.705-5.8c-.682-8.867,5.8-19.1,13.812-23.531,9.72-5.457,22.338-8.185,27.794,1.535C422.615,262.4,480.079,369.992,473.429,413.133Z" transform="translate(-204.352 80.346)" fill="#3a63a9"/>
          <path id="Trazado_281" data-name="Trazado 281" d="M402.845,422.788c-12.107,14.153-23.19,26.43-30.182,34.786-1.194-9.89-2.387-20.633-3.581-31.546-.171-2.046-.512-4.263-.682-6.309,11.6-17.563,24.043-37.343,33.933-55.418C403.015,382.2,403.015,403.178,402.845,422.788Z" transform="translate(-197.371 170.955)" fill="#2d548d"/>
          <path id="Trazado_282" data-name="Trazado 282" d="M426.582,413.758c-4.945-40.413-38.878-149.032-44.164-160.969-4.433-10.231-28.988-12.448-39.219-7.844a20.2,20.2,0,0,0-10.4,26.6c13.641,31.034,52.349,114.076,56.271,143.405,2.217,17.563,5.286,52.86,10.743,83.042,3.922,20.974,7.844,41.436,10.743,56.271,2.558,12.959,2.558,10.572,2.728,11.766l24.214-3.751S432.379,461.5,426.582,413.758Z" transform="translate(-223.665 85.177)" fill="#3a63a9"/>
          <path id="Trazado_283" data-name="Trazado 283" d="M355.589,133c-22.338,5.457-44.164,12.448-59,18.416l-9.89-22.167c13.982-5.8,34.1-12.448,63.092-19.61a12.011,12.011,0,0,1,14.494,8.7A11.85,11.85,0,0,1,355.589,133Z" transform="translate(-254.983 -8.861)" fill="#ed8c61"/>
          <path id="Trazado_284" data-name="Trazado 284" d="M348.511,109.39c7.673-1.194,13.3,2.558,15.347,10.061s-3.069,13.3-9.89,17.222c-8.185,4.774-11.084,5.8-45.7,17.734L289,127.806C333.335,110.584,335.551,111.266,348.511,109.39Z" transform="translate(-253.362 -8.955)" fill="#e8e8e8"/>
          <path id="Trazado_285" data-name="Trazado 285" d="M369.857,125.845h-1.876a43.822,43.822,0,0,1-27.453-9.378A105.586,105.586,0,0,1,341.722,96a14.228,14.228,0,1,1,28.135,4.263,84.393,84.393,0,0,0-.852,13.3A40.126,40.126,0,0,0,369.857,125.845Z" transform="translate(-217.073 -26.773)" fill="#ed8c61"/>
          <path id="Trazado_286" data-name="Trazado 286" d="M418.761,99c-5.627,26.089-20.121,45.187-45.187,45.187-24.9,0-40.583-18.927-45.187-45.187-4.092-24.555,20.292-48.6,45.187-48.6C398.811,50.23,424.047,74.614,418.761,99Z" transform="translate(-225.906 -50.399)" fill="#f6ad86"/>
          <path id="Trazado_287" data-name="Trazado 287" d="M417.016,580.628l-.17-.682c-6.821-42.288-17.222-106.062-22.338-146.3-3.751-29.329-40.072-116.293-53.713-147.327a1.025,1.025,0,0,1-.171-.682c0-.17,0-.17-.171-.341-2.217-5.968-8.867-28.135-2.558-63.092l2.046.341c-6.309,34.445.341,56.1,2.387,62.068,0,.171.171.341.171.512a.626.626,0,0,0,.171.512c13.641,31.034,49.962,118.339,53.713,147.839,5.286,40.072,15.517,104.016,22.338,146.3l.171.682Z" transform="translate(-220.75 70.75)" fill="#658bc1"/>
        </g>
        <path id="Trazado_288" data-name="Trazado 288" d="M385.426,109.2c0,6.139-2.387,16.37-18.416,16.37-11.6,0-26.26-4.945-31.716-14.323L334.1,109.2Z" transform="translate(-221.558 -0.715)" fill="#c8d6db"/>
        <path id="Trazado_289" data-name="Trazado 289" d="M336.9,109.2c4.263,7.5,17.052,12.277,28.135,12.277s14.324-5.457,14.324-12.277Z" transform="translate(-219.584 -0.715)" fill="#f6ad86"/>
        <g id="Grupo_29" data-name="Grupo 29" transform="translate(169.071 212.985)">
          <path id="Trazado_290" data-name="Trazado 290" d="M375.18,191.7c0-.171.682-6.991-6.48-16.881l6.65-3.922c8.355,12.448,7.5,21.315,7.5,21.826Z" transform="translate(-366.23 -170.191)" fill="#82aace"/>
          <path id="Trazado_291" data-name="Trazado 291" d="M371.085,171.364c3.751-1.705,8.7-.853,11.254,1.876,2.387,2.728,1.364,6.48-2.558,8.185-3.751,1.705-8.7.853-11.254-1.876C366.141,176.65,367.164,173.069,371.085,171.364Z" transform="translate(-367.252 -170.484)" fill="#4e7db0"/>
        </g>
        <path id="Trazado_292" data-name="Trazado 292" d="M417.756,68.976c-13.641-22-47.233-23.7-53.713-23.361-3.41.171-10.913,2.217-14.153,7.332-.171-3.581,0-6.821,0-6.821-2.9,3.581-3.41,6.65-2.9,9.037a36.623,36.623,0,0,1-3.41-5.627c-.512,3.751.511,5.968,2.046,7.162-9.208,2.217-20.974,15.176-16.881,41.777,1.705,11.6,27.965,2.728,35.3-8.867,4.945,8.014,14.835,9.719,14.835,9.719-3.41-3.41-6.48-8.526-8.867-13.641,13.982,8.526,32.569,17.734,34.785,23.361,0,0,4.092-9.037,1.023-14.835,0,0,11.084,2.728,12.448,13.812C418.1,107.683,432.25,92.507,417.756,68.976Z" transform="translate(-225.924 -45.579)" fill="#424344"/>
        <rect id="Rect치ngulo_33" data-name="Rect치ngulo 33" width="2.046" height="69.23" transform="matrix(0.987, -0.16, 0.16, 0.987, 157.159, 301.441)" fill="#658bc1"/>
        <path id="Trazado_293" data-name="Trazado 293" d="M366.241,278.212l-.341-2.046s4.263-.682,6.48-3.922a9.527,9.527,0,0,0,1.364-6.991l-6.991-43.311,2.046-.341,6.991,43.311c.512,3.41,0,6.309-1.705,8.526A11.884,11.884,0,0,1,366.241,278.212Z" transform="translate(-199.134 78.546)" fill="#658bc1"/>
        <path id="Trazado_294" data-name="Trazado 294" d="M327.975,80.987a15.754,15.754,0,0,0,.171,13.3c2.217,4.774,9.208,4.433,11.254-.341l5.8-12.959a6.3,6.3,0,0,0-7.332-8.7A16.106,16.106,0,0,0,327.975,80.987Z" transform="translate(-226.858 -26.897)" fill="#f6ad86"/>
      </g>
    </g>
  </g>
</svg>
