<svg xmlns="http://www.w3.org/2000/svg" width="680.912" height="680.912" viewBox="0 0 680.912 680.912">
  <g id="coding-browser" transform="translate(-2 -2)">
    <g id="coding-browser-2" data-name="coding-browser" transform="translate(2 2)">
      <g id="browser">
        <path id="Trazado_328" data-name="Trazado 328" d="M30.371,551.055H654.54a28.371,28.371,0,0,0,28.371-28.371V12H2V522.684A28.371,28.371,0,0,0,30.371,551.055Z" transform="translate(-2 129.857)" fill="#40495a"/>
        <path id="Trazado_329" data-name="Trazado 329" d="M654.54,2H30.371A28.371,28.371,0,0,0,2,30.371V143.857H682.912V30.371A28.371,28.371,0,0,0,654.54,2Z" transform="translate(-2 -2)" fill="#ff9400"/>
        <rect id="Rectángulo_63" data-name="Rectángulo 63" width="87" height="30" transform="translate(56 55.912)" fill="#d7d4d4"/>
        <rect id="Rectángulo_64" data-name="Rectángulo 64" width="428" height="30" transform="translate(197 55.912)" fill="#d7d4d4"/>
      </g>
      <g id="coding-browser-3" data-name="coding-browser" transform="translate(55.889 227.281)">
        <rect id="Rectángulo_65" data-name="Rectángulo 65" width="59" height="29" transform="translate(0.111 338.631)" fill="#748191"/>
        <rect id="Rectángulo_66" data-name="Rectángulo 66" width="59" height="30" transform="translate(0.111 226.631)" fill="#748191"/>
        <rect id="Rectángulo_67" data-name="Rectángulo 67" width="59" height="27" transform="translate(0.111 283.631)" fill="#748191"/>
        <rect id="Rectángulo_68" data-name="Rectángulo 68" width="59" height="28" transform="translate(0.111 114.631)" fill="#748191"/>
        <rect id="Rectángulo_69" data-name="Rectángulo 69" width="59" height="29" transform="translate(0.111 169.631)" fill="#748191"/>
        <rect id="Rectángulo_70" data-name="Rectángulo 70" width="59" height="29" transform="translate(0.111 -0.369)" fill="#748191"/>
        <rect id="Rectángulo_71" data-name="Rectángulo 71" width="59" height="28" transform="translate(0.111 55.631)" fill="#748191"/>
        <rect id="Rectángulo_72" data-name="Rectángulo 72" width="41" height="29" transform="translate(100.111 169.631)" fill="#ffcd02"/>
        <rect id="Rectángulo_73" data-name="Rectángulo 73" width="143" height="29" transform="translate(171.111 169.631)" fill="#2ecc71"/>
        <rect id="Rectángulo_74" data-name="Rectángulo 74" width="56" height="29" transform="translate(342.111 169.631)" fill="#ff6e40"/>
        <rect id="Rectángulo_75" data-name="Rectángulo 75" width="83" height="29" transform="translate(427.111 169.631)" fill="#26c6da"/>
        <rect id="Rectángulo_76" data-name="Rectángulo 76" width="85" height="28" transform="translate(100.111 114.631)" fill="#2ecc71"/>
        <rect id="Rectángulo_77" data-name="Rectángulo 77" width="142" height="28" transform="translate(213.111 114.631)" fill="#26c6da"/>
        <rect id="Rectángulo_78" data-name="Rectángulo 78" width="84" height="28" transform="translate(384.111 114.631)" fill="#ff6e40"/>
        <rect id="Rectángulo_79" data-name="Rectángulo 79" width="85" height="30" transform="translate(100.111 226.631)" fill="#ff6e40"/>
        <rect id="Rectángulo_80" data-name="Rectángulo 80" width="42" height="30" transform="translate(213.111 226.631)" fill="#26c6da"/>
        <rect id="Rectángulo_81" data-name="Rectángulo 81" width="59" height="30" transform="translate(283.111 226.631)" fill="#ffcd02"/>
        <rect id="Rectángulo_82" data-name="Rectángulo 82" width="113" height="30" transform="translate(369.111 226.631)" fill="#2ecc71"/>
        <rect id="Rectángulo_83" data-name="Rectángulo 83" width="30" height="30" transform="translate(510.111 226.631)" fill="#ffcd02"/>
        <rect id="Rectángulo_84" data-name="Rectángulo 84" width="28" height="28" transform="translate(100.111 55.631)" fill="#26c6da"/>
        <rect id="Rectángulo_85" data-name="Rectángulo 85" width="227" height="28" transform="translate(157.111 55.631)" fill="#ffcd02"/>
        <rect id="Rectángulo_86" data-name="Rectángulo 86" width="127" height="28" transform="translate(412.111 55.631)" fill="#2ecc71"/>
        <rect id="Rectángulo_87" data-name="Rectángulo 87" width="57" height="29" transform="translate(100.111 -0.369)" fill="#ff6e40"/>
        <rect id="Rectángulo_88" data-name="Rectángulo 88" width="114" height="29" transform="translate(185.111 -0.369)" fill="#ff6e40"/>
        <rect id="Rectángulo_89" data-name="Rectángulo 89" width="41" height="29" transform="translate(328.111 -0.369)" fill="#ffcd02"/>
        <rect id="Rectángulo_90" data-name="Rectángulo 90" width="171" height="29" transform="translate(398.111 -0.369)" fill="#26c6da"/>
        <rect id="Rectángulo_91" data-name="Rectángulo 91" width="214" height="27" transform="translate(100.111 283.631)" fill="#ffcd02"/>
        <rect id="Rectángulo_92" data-name="Rectángulo 92" width="113" height="27" transform="translate(342.111 283.631)" fill="#26c6da"/>
        <rect id="Rectángulo_93" data-name="Rectángulo 93" width="87" height="27" transform="translate(482.111 283.631)" fill="#ff6e40"/>
        <rect id="Rectángulo_94" data-name="Rectángulo 94" width="57" height="29" transform="translate(100.111 338.631)" fill="#26c6da"/>
        <rect id="Rectángulo_95" data-name="Rectángulo 95" width="85" height="29" transform="translate(185.111 338.631)" fill="#2ecc71"/>
        <rect id="Rectángulo_96" data-name="Rectángulo 96" width="128" height="29" transform="translate(299.111 338.631)" fill="#ff6e40"/>
        <rect id="Rectángulo_97" data-name="Rectángulo 97" width="55" height="29" transform="translate(455.111 338.631)" fill="#ffcd02"/>
      </g>
    </g>
  </g>
</svg>
