<svg xmlns="http://www.w3.org/2000/svg" width="1174.835" height="823.946" viewBox="0 0 1174.835 823.946">
  <g id="undraw_Social_media_re_w12q" transform="translate(-0.005)">
    <path id="Trazado_359" data-name="Trazado 359" d="M726.892,798.971a131.411,131.411,0,0,1-28.177,15.375c-2.615,1.046-5.246,2.02-7.92,2.906H554.3c-.552-.959-1.09-1.933-1.642-2.906-11.073-19.821-21.115-40.413-23.963-62.806-3.415-26.884,6.162-57.327,29.834-70.537a47.354,47.354,0,0,1,9.794-4.1c1.41-.436,2.848-.785,4.3-1.09a51.175,51.175,0,0,1,59.508,66.526c20.068-20.577,16.319-53.942,9.4-81.828s-15.331-58.926-1.22-83.979c7.833-13.936,21.623-22.582,37.085-26.07.48-.1.959-.2,1.424-.291a74.7,74.7,0,0,1,53.666,9.4c29.586,18.63,44.771,53.985,49.7,88.6C790.134,703.89,772.55,766.056,726.892,798.971Z" transform="translate(-45.199 6.695)" fill="#2d2d2d"/>
    <path id="Trazado_360" data-name="Trazado 360" d="M572.153,653.928a115.02,115.02,0,0,1,9.94,71.627A118.15,118.15,0,0,1,560.353,774.7c-.741.988-1.5,1.962-2.267,2.906h-5.391c.829-.945,1.642-1.918,2.412-2.906a111.245,111.245,0,0,0,2.034-137.441c1.41-.436,2.848-.785,4.3-1.09a116.192,116.192,0,0,1,10.71,17.758Z" transform="translate(-34.018 46.339)" fill="#fff"/>
    <path id="Trazado_361" data-name="Trazado 361" d="M689.479,709.205a126.994,126.994,0,0,1-8.762,35.777A110.26,110.26,0,0,1,663.6,772.941c-14.429,17.365-33.524,30.429-54.261,39.119q-2.267.959-4.577,1.831c-2.674,1.046-5.377,2.005-8.095,2.906h-14.72c3.473-.872,6.932-1.846,10.347-2.906a172.652,172.652,0,0,0,23.7-9.344,131.6,131.6,0,0,0,49.233-40.383c13.79-19.036,19.88-41.924,20.925-65.189,1.1-24.893-2.136-50.236-7.818-74.46a312.179,312.179,0,0,0-26.258-71.539,2.245,2.245,0,0,1,.886-2.964,1.942,1.942,0,0,1,1.424-.291,1.664,1.664,0,0,1,1.1.93c1.439,2.8,2.849,5.609,4.2,8.443a316.825,316.825,0,0,1,24.748,74.228C689.421,658.083,692.1,683.993,689.479,709.205Z" transform="translate(-20.763 7.148)" fill="#fff"/>
    <path id="Trazado_362" data-name="Trazado 362" d="M257.268,487.566A61.033,61.033,0,1,1,318.3,426.533,61.033,61.033,0,0,1,257.268,487.566Zm0-119.16a58.127,58.127,0,1,0,58.127,58.127A58.127,58.127,0,0,0,257.268,368.406Z" transform="translate(-195.554 -76.32)" fill="#434343"/>
    <path id="Trazado_363" data-name="Trazado 363" d="M427.268,352.566A61.033,61.033,0,1,1,488.3,291.533a61.033,61.033,0,0,1-61.033,61.033Zm0-119.16a58.127,58.127,0,1,0,58.127,58.127,58.127,58.127,0,0,0-58.127-58.127Z" transform="translate(-118.516 -137.497)" fill="#434343"/>
    <path id="Trazado_364" data-name="Trazado 364" d="M609.268,288.566A61.033,61.033,0,1,1,670.3,227.533a61.033,61.033,0,0,1-61.033,61.033Zm0-119.16a58.127,58.127,0,1,0,58.127,58.127A58.127,58.127,0,0,0,609.268,169.406Z" transform="translate(-36.04 -166.5)" fill="#434343"/>
    <path id="Trazado_365" data-name="Trazado 365" d="M803.268,354.566A61.033,61.033,0,1,1,864.3,293.533a61.033,61.033,0,0,1-61.033,61.033Zm0-119.16a58.127,58.127,0,1,0,58.127,58.127A58.127,58.127,0,0,0,803.268,235.406Z" transform="translate(51.875 -136.591)" fill="#434343"/>
    <path id="Trazado_366" data-name="Trazado 366" d="M981.268,455.566a61.033,61.033,0,1,1,61.033-61.033A61.033,61.033,0,0,1,981.268,455.566Zm0-119.16a58.127,58.127,0,1,0,58.127,58.127A58.127,58.127,0,0,0,981.268,336.406Z" transform="translate(132.539 -90.821)" fill="#434343"/>
    <path id="Trazado_367" data-name="Trazado 367" d="M452.628,264.17l7.266-1.453s-6.1,6.83-7.266,7.266h0a29.253,29.253,0,0,0,0,4.359c-13.95,59.871-65.393,33.423-65.393,33.423,18.746.436,20.344-7.266,20.344-7.266-10.9-1.6-13.078-8.719-13.078-8.719a4.49,4.49,0,0,0,5.813-1.453c-11.771-3.052-10.172-14.532-10.172-14.532a15.114,15.114,0,0,0,7.121,2.761c-1.308-1.6-12.352-14.822-5.667-21.652,0,0,8.138,14.532,29.5,15.839l1.453-.291a11.4,11.4,0,0,1-.291-3.2A15.258,15.258,0,0,1,437.515,254c10.172,0,12.352,5.813,12.352,5.813l7.266-4.359C456.987,255.451,456.26,262.717,452.628,264.17Z" transform="translate(-109 -126.849)" fill="#434343"/>
    <path id="Trazado_368" data-name="Trazado 368" d="M555.8,558.875l16,7.841,37.858-57.971-23.61-11.573Z" transform="translate(251.868 225.302)" fill="#ffb8b8"/>
    <path id="Trazado_369" data-name="Trazado 369" d="M753.687,701.163l31.5,15.443h0a22.358,22.358,0,0,1,10.234,29.918l-.32.653-51.581-25.284Z" transform="translate(52.46 75.792)" fill="#232323"/>
    <path id="Trazado_370" data-name="Trazado 370" d="M664.894,579.872H682.71l8.475-68.716H664.891Z" transform="translate(301.305 231.639)" fill="#ffb8b8"/>
    <path id="Trazado_371" data-name="Trazado 371" d="M857.531,716.94h35.086a22.359,22.359,0,0,1,22.359,22.36v.726l-57.444,0Z" transform="translate(104.123 82.941)" fill="#232323"/>
    <circle id="Elipse_40" data-name="Elipse 40" cx="35.691" cy="35.691" r="35.691" transform="translate(892.24 265.882)" fill="#ffb8b8"/>
    <path id="Trazado_372" data-name="Trazado 372" d="M905.439,793.277a6.539,6.539,0,0,1-6.525-6.254L885.118,603.4a2.18,2.18,0,0,0-4.11-.94L792.755,770.941a6.572,6.572,0,0,1-8.717,2.815l-24.6-12.3a6.552,6.552,0,0,1-2.939-8.742L809.157,646l34.88-79.932c13.463-26.519,27.76-40.185,43.706-41.779,16.36-1.633,33.831,9.615,53.421,34.392l.16.2,0,.258-2.906,224.307a6.508,6.508,0,0,1-5.929,6.5l-26.406,3.293Q905.757,793.276,905.439,793.277Z" transform="translate(58.033 -4.43)" fill="#2d2d2d"/>
    <path id="Trazado_373" data-name="Trazado 373" d="M815.893,613.61a15.611,15.611,0,0,0,3.443-23.688l5.382-142.2-26.157,3.26-2.206,138.34a15.7,15.7,0,0,0,19.539,24.289Z" transform="translate(74.368 -39.06)" fill="#ffb8b8"/>
    <path id="Trazado_374" data-name="Trazado 374" d="M832.678,484.979l-35.126-3.992a7,7,0,0,1-5.974-8.755l9.069-34.059a19.44,19.44,0,1,1,38.617,4.5l1.2,35.111a7,7,0,0,1-7.786,7.192Z" transform="translate(74.129 -51.177)" fill="#25d7fc"/>
    <path id="Trazado_375" data-name="Trazado 375" d="M953.265,407.093a15.333,15.333,0,0,0-.348,2.383l-62.424,36.012-15.173-8.735L859.145,457.93,884.5,476a11.625,11.625,0,0,0,13.948-.34l64.37-50.782a15.254,15.254,0,1,0-9.556-17.789Z" transform="translate(104.855 -62.806)" fill="#ffb8b8"/>
    <path id="Trazado_376" data-name="Trazado 376" d="M897.969,440.229l-20.175,26.148a6.539,6.539,0,0,1-9.887.542L845.067,443.2a18.161,18.161,0,1,1,22.273-28.692l28.646,16.018a6.539,6.539,0,0,1,1.984,9.7Z" transform="translate(95.291 -55.84)" fill="#fdb500"/>
    <path id="Trazado_377" data-name="Trazado 377" d="M929.16,623.213,890.427,434.549a35.378,35.378,0,0,0-40.471-27.782l-12.917,2.153a34.642,34.642,0,0,0-22.495,14.035h0a48.376,48.376,0,0,0-7.227,41.139l21.38,76.517-15.866,81.976a5.807,5.807,0,0,0,6.52,6.859c7.943-1.136,21.037-2.758,36.075-3.642l8.147-31.426,3.314,30.927c18.473-.517,38.527.388,55.07,4.686a5.817,5.817,0,0,0,7.2-6.779Z" transform="translate(80.559 -57.839)" fill="#fdb500"/>
    <path id="Trazado_378" data-name="Trazado 378" d="M883.831,382.3c9.173,6.278,21.218,12.732,30.588,6.046,6.152-4.39,8.09-12.52,5.6-19.654-4.486-12.829-16.812-18.477-28.6-22.807-15.323-5.628-32.007-10.106-47.825-6.075s-29.8,19.346-26.943,35.418c2.3,12.925,14.488,23.679,12.757,36.692-1.742,13.1-16.47,19.99-29.472,22.33s-27.553,3.093-36.9,12.432c-11.92,11.914-8.944,33.21,2.273,45.789s28.143,18.281,44.545,22.157c21.731,5.136,45.236,7.835,65.875-.688s36.7-31.467,30.722-52.982c-2.525-9.088-8.475-16.768-14.224-24.245s-11.572-15.3-13.765-24.47c-1.828-7.645-.475-16.521,4.595-22.255a6.448,6.448,0,0,0,.864-7.537Z" transform="translate(57.834 -88.665)" fill="#2f2e41"/>
    <path id="Trazado_379" data-name="Trazado 379" d="M617.941,189.637a15.389,15.389,0,0,1,15.343,15.343v30.683a15.389,15.389,0,0,1-15.343,15.343H587.257a15.389,15.389,0,0,1-15.343-15.343V204.979a15.389,15.389,0,0,1,15.343-15.343h30.683m0-6.136H587.257a21.542,21.542,0,0,0-21.48,21.48v30.684a21.542,21.542,0,0,0,21.48,21.48h30.683a21.543,21.543,0,0,0,21.48-21.48V204.979A21.542,21.542,0,0,0,617.941,183.5Z" transform="translate(-28.09 -158.796)" fill="#434343"/>
    <path id="Trazado_380" data-name="Trazado 380" d="M606.27,201.146a4.593,4.593,0,1,1,.02,0Z" transform="translate(-11.817 -154.962)" fill="#434343"/>
    <path id="Trazado_381" data-name="Trazado 381" d="M596.859,202.306a12.274,12.274,0,1,1-12.274,12.274,12.274,12.274,0,0,1,12.274-12.274m0-6.136a18.411,18.411,0,1,0,18.41,18.411,18.411,18.411,0,0,0-18.41-18.411Z" transform="translate(-22.348 -153.055)" fill="#434343"/>
    <path id="Trazado_382" data-name="Trazado 382" d="M168.576,576.47l-17.341-4.086,7.506-68.829,25.593,6.031Z" transform="translate(68.533 228.194)" fill="#ffb8b8"/>
    <path id="Trazado_383" data-name="Trazado 383" d="M376.688,742.219l-55.914-13.173.167-.707a22.359,22.359,0,0,1,26.89-16.637h0l34.15,8.046Z" transform="translate(-139.118 80.295)" fill="#232323"/>
    <path id="Trazado_384" data-name="Trazado 384" d="M217.869,575.56H200.053l-8.475-68.717h26.294Z" transform="translate(86.815 229.685)" fill="#ffb8b8"/>
    <path id="Trazado_385" data-name="Trazado 385" d="M426.475,739.715l-57.444,0v-.727a22.359,22.359,0,0,1,22.359-22.359h35.086Z" transform="translate(-117.249 82.8)" fill="#232323"/>
    <path id="Trazado_386" data-name="Trazado 386" d="M499.337,581.943a15.611,15.611,0,0,0-7.607-22.7L439.57,426.974l-29.02,17.617,60.4,124.479a15.7,15.7,0,0,0,28.391,12.872Z" transform="translate(-98.434 -48.462)" fill="#ffb8b8"/>
    <path id="Trazado_387" data-name="Trazado 387" d="M454.017,458.7l-33.154,12.273a7,7,0,0,1-9.279-5.122l-7.259-34.49a19.44,19.44,0,1,1,36.5-13.39l16.9,30.8a7,7,0,0,1-3.708,9.93Z" transform="translate(-101.796 -58.318)" fill="#fdb500"/>
    <path id="Trazado_388" data-name="Trazado 388" d="M431.314,780.641q-.13,0-.262,0l-25.252-1.01A6.5,6.5,0,0,1,399.523,773l1.937-139.5a2.18,2.18,0,0,0-4.347-.258L382.464,772.9a6.559,6.559,0,0,1-5.428,5.768l-.088.014-23.707-1.863a6.539,6.539,0,0,1-7.524-6.5l1.417-236.545,116.327,7.362L437.813,774.817A6.561,6.561,0,0,1,431.314,780.641Z" transform="translate(-127.814 -0.065)" fill="#2d2d2d"/>
    <circle id="Elipse_41" data-name="Elipse 41" cx="35.691" cy="35.691" r="35.691" transform="translate(246.545 255.827)" fill="#ffb8b8"/>
    <path id="Trazado_389" data-name="Trazado 389" d="M458.335,612.067q-.246,0-.494-.017L350.33,604.183a6.538,6.538,0,0,1-6.061-6.66L347.1,462.518a60.9,60.9,0,1,1,121.542,4.049c-1.88,20.807-3.375,111.705-3.789,139.068a6.532,6.532,0,0,1-6.522,6.431Z" transform="translate(-128.471 -60.585)" fill="#fdb500"/>
    <path id="Trazado_390" data-name="Trazado 390" d="M300.306,398.363a15.3,15.3,0,0,1,.348,2.383l62.424,36.012,15.173-8.735L394.427,449.2l-25.358,18.074a11.625,11.625,0,0,1-13.948-.34L290.75,416.151a15.254,15.254,0,1,1,9.556-17.789Z" transform="translate(-162.036 -66.762)" fill="#ffb8b8"/>
    <path id="Trazado_391" data-name="Trazado 391" d="M334.747,426.193a6.532,6.532,0,0,1,3.213-4.4l28.646-16.018a18.161,18.161,0,1,1,22.272,28.691l-22.84,23.717a6.539,6.539,0,0,1-9.887-.542L335.976,431.5a6.532,6.532,0,0,1-1.229-5.3Z" transform="translate(-132.846 -59.796)" fill="#fdb500"/>
    <path id="Trazado_392" data-name="Trazado 392" d="M424.026,409.942a32.509,32.509,0,0,1-27.39-15.38c-.314-.492-2.032-3.016-4.021-5.936-5.59-8.208-6.9-10.161-7.012-10.448-1.513-3.9-6.314-5.41-10.075-5.987-.7-.108-1.414-.2-2.128-.3-5.3-.71-10.775-1.443-13.779-7.266-2.2-4.273-5.806-21.673-3.039-25.924,3.469-5.333,10.13-3.6,16.571-1.926,4.122,1.07,8.383,2.178,11.779,1.472,14.719-3.062,31.4-6.534,46.136,2.439,11.726,7.14,18.78,20.624,18.407,35.191-.4,15.643-7.222,27.99-18.25,33.031l-2.3.669-1.291.159A31.952,31.952,0,0,1,424.026,409.942Z" transform="translate(-123.345 -90.166)" fill="#2f2e41"/>
    <path id="Trazado_393" data-name="Trazado 393" d="M976.188,348.3a40.026,40.026,0,0,0-16.062,76.686,35.44,35.44,0,0,1,.7-9.184c.768-3.252,5.146-21.816,5.146-21.816a15.281,15.281,0,0,1-1.286-6.325c0-5.932,3.43-10.363,7.718-10.363,3.645,0,5.4,2.734,5.4,6,0,3.663-2.341,9.13-3.538,14.2a6.188,6.188,0,0,0,6.325,7.7c7.576,0,12.685-9.738,12.685-21.28,0-8.773-5.914-15.33-16.652-15.33-12.132,0-19.708,9.059-19.708,19.171a11.536,11.536,0,0,0,2.644,7.844,1.956,1.956,0,0,1,.572,2.233c-.2.733-.625,2.5-.822,3.216a1.375,1.375,0,0,1-2,1c-5.592-2.287-8.2-8.4-8.2-15.294,0-11.364,9.595-25,28.605-25,15.276,0,25.336,11.06,25.336,22.924,0,15.705-8.737,27.426-21.6,27.426-4.324,0-8.38-2.341-9.773-4.985,0,0-2.323,9.219-2.823,11.006a33.258,33.258,0,0,1-4.02,8.576A40.029,40.029,0,1,0,976.188,348.3Z" transform="translate(139.756 -84.115)" fill="#434343"/>
    <path id="Trazado_394" data-name="Trazado 394" d="M831.786,263l-51.478-15.837a5.264,5.264,0,0,0-6.748,3.182L757.687,301.94a5.678,5.678,0,0,0,3.644,6.907l51.463,15.833a5.39,5.39,0,0,0,6.574-3.763l15.873-51.592A4.947,4.947,0,0,0,831.785,263Zm-53.446,39.838-8.836-2.719,8.453-27.474,8.836,2.719Zm5.625-32.917-.063-.019a5.026,5.026,0,1,1,.063.019Zm26.669,42.853-8.836-2.719,4.622-15.022c1.107-3.6.578-6.454-2.619-7.437a5.055,5.055,0,0,0-5.535,1.868,6.229,6.229,0,0,0-.973,2.076l-4.815,15.649-8.836-2.719L792.094,277l8.836,2.719-1.176,3.823a9.361,9.361,0,0,1,9.343-2.015c5.8,1.784,9.012,6.958,6.476,15.2Z" transform="translate(58.781 -130.087)" fill="#434343"/>
    <path id="Trazado_395" data-name="Trazado 395" d="M290.576,420.105a39.9,39.9,0,1,0-46.133,39.416V431.642H234.311V420.105h10.133v-8.792c0-10,5.958-15.525,15.07-15.525a61.308,61.308,0,0,1,8.933.78v9.82h-5.034c-4.953,0-6.5,3.074-6.5,6.234v7.484h11.065l-1.767,11.537h-9.3v27.881a39.909,39.909,0,0,0,33.666-39.419Z" transform="translate(-188.965 -69.652)" fill="#434343" fill-rule="evenodd"/>
    <path id="Trazado_396" data-name="Trazado 396" d="M1369.929,732.953a1.458,1.458,0,0,1-1.453,1.453H197.223a1.453,1.453,0,0,1,0-2.906H1368.476a1.458,1.458,0,0,1,1.453,1.453Z" transform="translate(-195.765 89.54)"/>
  </g>
</svg>
