<svg id="undraw_all_the_data_h4ki" xmlns="http://www.w3.org/2000/svg" width="836.676" height="620.141" viewBox="0 0 836.676 620.141">
  <ellipse id="Elipse_38" data-name="Elipse 38" cx="107.887" cy="14.001" rx="107.887" ry="14.001" transform="translate(620.902 592.14)" fill="#a2a2a2"/>
  <rect id="Rectángulo_100" data-name="Rectángulo 100" width="325.706" height="203.193" transform="translate(0 20.796)" fill="#f2f2f2"/>
  <rect id="Rectángulo_101" data-name="Rectángulo 101" width="325.706" height="203.193" transform="translate(20.543 1)" fill="none" stroke="#3f3d56" stroke-miterlimit="10" stroke-width="2"/>
  <path id="Trazado_334" data-name="Trazado 334" d="M335.654,196.975A70.221,70.221,0,0,0,286,77.1v70.221Z" transform="translate(-102.23 -45.098)" fill="#3f3d56"/>
  <path id="Trazado_335" data-name="Trazado 335" d="M262.219,77.1A70.229,70.229,0,0,0,228.627,209l33.593-61.678Z" transform="translate(-78.449 -45.098)" fill="#ff9400"/>
  <path id="Trazado_336" data-name="Trazado 336" d="M324.278,220.754,274.625,171.1l-33.593,61.678a70.258,70.258,0,0,0,83.246-12.024Z" transform="translate(-90.855 -68.877)" fill="#575a89"/>
  <rect id="Rectángulo_102" data-name="Rectángulo 102" width="13.447" height="13.447" transform="translate(32.869 161.985)" fill="#ff9400"/>
  <rect id="Rectángulo_103" data-name="Rectángulo 103" width="13.447" height="13.447" transform="translate(52.292 161.985)" fill="#3f3d56"/>
  <rect id="Rectángulo_104" data-name="Rectángulo 104" width="13.447" height="13.447" transform="translate(71.715 161.985)" fill="#575a89"/>
  <rect id="Rectángulo_105" data-name="Rectángulo 105" width="55.28" height="2.241" transform="translate(265.196 164.974)" fill="#3f3d56"/>
  <rect id="Rectángulo_106" data-name="Rectángulo 106" width="55.28" height="2.241" transform="translate(265.196 171.697)" fill="#3f3d56"/>
  <rect id="Rectángulo_107" data-name="Rectángulo 107" width="55.28" height="2.241" transform="translate(265.196 178.42)" fill="#3f3d56"/>
  <rect id="Rectángulo_108" data-name="Rectángulo 108" width="185.264" height="203.193" transform="translate(102.343 303.922)" fill="#f2f2f2"/>
  <rect id="Rectángulo_109" data-name="Rectángulo 109" width="185.264" height="203.193" transform="translate(121.019 284.499)" fill="none" stroke="#3f3d56" stroke-miterlimit="10" stroke-width="2"/>
  <rect id="Rectángulo_110" data-name="Rectángulo 110" width="9.989" height="9.989" transform="translate(130.731 464.768)" fill="#ff9400"/>
  <rect id="Rectángulo_111" data-name="Rectángulo 111" width="9.989" height="9.989" transform="translate(145.159 464.768)" fill="#3f3d56"/>
  <rect id="Rectángulo_112" data-name="Rectángulo 112" width="9.989" height="9.989" transform="translate(159.588 464.768)" fill="#575a89"/>
  <rect id="Rectángulo_113" data-name="Rectángulo 113" width="38.846" height="1.575" transform="translate(242.786 469.107)" fill="#3f3d56"/>
  <rect id="Rectángulo_114" data-name="Rectángulo 114" width="38.846" height="1.575" transform="translate(242.786 473.831)" fill="#3f3d56"/>
  <rect id="Rectángulo_115" data-name="Rectángulo 115" width="38.846" height="1.575" transform="translate(242.786 478.555)" fill="#3f3d56"/>
  <path id="Trazado_337" data-name="Trazado 337" d="M326,463.1v16.435A49.3,49.3,0,0,1,360.863,563.7l11.621,11.621A65.739,65.739,0,0,0,326,463.1Z" transform="translate(-112.349 -142.743)" fill="#3f3d56"/>
  <path id="Trazado_338" data-name="Trazado 338" d="M359.014,609.39l-11.621-11.621a49.292,49.292,0,0,1-64.693,4.386l-9.947,13.088A65.737,65.737,0,0,0,359.014,609.39Z" transform="translate(-98.879 -176.81)" fill="#575a89"/>
  <path id="Trazado_339" data-name="Trazado 339" d="M254.433,528.839a49.3,49.3,0,0,1,49.3-49.3V463.1A65.738,65.738,0,0,0,263.96,581.177l9.947-13.089A49.218,49.218,0,0,1,254.433,528.839Z" transform="translate(-90.086 -142.743)" fill="#ff9400"/>
  <path id="Trazado_340" data-name="Trazado 340" d="M958.353,174.622s-3.048,22.643,4.79,25.256,5.661,22.643,5.661,22.643L945.29,240.374l-20.9,1.742-5.225-27,3.048-6.967s11.757-13.934,3.484-28.3S958.353,174.622,958.353,174.622Z" transform="translate(-262.4 -69.042)" fill="#ffb9b9"/>
  <path id="Trazado_341" data-name="Trazado 341" d="M958.353,174.622s-3.048,22.643,4.79,25.256,5.661,22.643,5.661,22.643L945.29,240.374l-20.9,1.742-5.225-27,3.048-6.967s11.757-13.934,3.484-28.3S958.353,174.622,958.353,174.622Z" transform="translate(-262.4 -69.042)" opacity="0.1"/>
  <path id="Trazado_342" data-name="Trazado 342" d="M912.1,372.148l-27.433,64.446s-21.337-12.192-33.965-10.886-28.3-13.934-28.3-13.934l15.676-75.767,29.175-80.557,40.5,25.691Z" transform="translate(-237.922 -90.215)" fill="#575a89"/>
  <path id="Trazado_343" data-name="Trazado 343" d="M912.1,372.148l-27.433,64.446s-21.337-12.192-33.965-10.886-28.3-13.934-28.3-13.934l15.676-75.767,29.175-80.557,40.5,25.691Z" transform="translate(-237.922 -90.215)" opacity="0.1"/>
  <path id="Trazado_344" data-name="Trazado 344" d="M953.551,742.528v20.9H933.956L937,739.045Z" transform="translate(-236.261 -186.702)" fill="#575a89"/>
  <path id="Trazado_345" data-name="Trazado 345" d="M1022.491,695.328l14.365,8.709-10.451,23.949-10.884-1.306-10.451-14.8Z" transform="translate(-254.25 -175.643)" fill="#575a89"/>
  <path id="Trazado_346" data-name="Trazado 346" d="M978.016,403.5l25.691,60.527S994.563,531.09,995,536.75s.871,7.838-1.306,12.628-3.048,7.838-1.742,13.5,1.742,7.838.871,10.015-6.967,91.878-10.015,97.975,1.742,16.111-1.307,16.982-25.691-1.306-27-6.532,4.354-17.853,1.306-21.772.435-145-3.919-154.582-52.253-18.289-52.253-18.289-4.354-27.868-1.742-32.223,6.1-31.787,6.1-31.787Z" transform="translate(-256.808 -127.668)" fill="#ececec"/>
  <path id="Trazado_347" data-name="Trazado 347" d="M970.3,799.461s12.192-14.37,22.643,0c0,0,.871,16.982,8.273,20.466s3.919,17.418-6.532,17.853-23.949,2.177-24.385-3.484,1.742-9.144-2.177-10.886,0-11.757,0-11.757Z" transform="translate(-274.344 -226.216)" fill="#ececec"/>
  <path id="Trazado_348" data-name="Trazado 348" d="M954.674,517.1s-.436,31.352-3.484,35.706-4.79,6.967-3.048,11.757,4.355,13.5,3.048,15.24,1.306,10.886,1.306,10.886,33.529,16.111,49.2,49.64c0,0,16.112,26.562,20.9,27s10.451-3.048,7.838,6.967-12.628,23.078-20.03,21.772-13.061-13.934-13.061-13.934-57.914-58.785-64.01-60.527-23.514-15.676-26.562-24.385-9.58-81.428-6.532-86.217,14.37-11.322,14.37-11.322Z" transform="translate(-257.414 -151.998)" fill="#ececec"/>
  <path id="Trazado_349" data-name="Trazado 349" d="M1068.685,727.6s27,.871,27.433,7.4-11.321,45.286-9.58,54.43-13.5,30.046-23.514,25.691-2.177-27-2.177-27-10.016-30.916-8.274-31.352,19.16-5.661,18.289-10.886S1068.685,727.6,1068.685,727.6Z" transform="translate(-296.097 -209.652)" fill="#ececec"/>
  <circle id="Elipse_39" data-name="Elipse 39" cx="26.997" cy="26.997" r="26.997" transform="translate(648.708 74.881)" fill="#ffb9b9"/>
  <path id="Trazado_350" data-name="Trazado 350" d="M955.294,222.29s-14.805,15.676-25.691,13.063-16.547-21.337-16.547-21.337l-19.595-3.484s-13.934,61.833-13.934,67.929,13.934,71.848,13.934,83.6-11.322,18.724,6.1,18.289,9.144-6.1,34.4-6.532,29.175,5.225,34.4-3.919a72.855,72.855,0,0,1,13.063-16.111l-9.144-32.223-1.31-91.007s-11.164-21.772-16.25-20.03C954.719,210.533,957.471,220.113,955.294,222.29Z" transform="translate(-252.373 -78.827)" fill="#3d3d3d"/>
  <path id="Trazado_351" data-name="Trazado 351" d="M972.491,205.411s23.217,2.545,29.748,7.335,24.82,8.273,24.385,11.757-21.337,53.124-21.337,53.124-9.58,39.19-1.306,48.334,39.19,108.861,33.964,117.134-21.772-25.256-21.772-25.256-22.208-71.848-34.4-84.04-13.063-77.944-13.063-80.992S972.491,205.411,972.491,205.411Z" transform="translate(-274.934 -77.556)" fill="#d5d5d5"/>
  <path id="Trazado_352" data-name="Trazado 352" d="M898.486,209.646s-28.607-10.779-38.622-6.424-16.111,5.225-16.111,5.225l-3.483,42.674s-1.306,61.4-12.628,76.2-18.724,76.638-16.982,82.734-3.048,16.547,4.354,13.934,27.868-62.7,27.868-62.7,0-34.4,12.192-43.98S887.3,268.1,888.168,258.522s9.144-36.142,9.144-36.142Z" transform="translate(-234.888 -76.74)" fill="#d5d5d5"/>
  <path id="Trazado_353" data-name="Trazado 353" d="M1042.343,392.743s-13.066,24.385-14.807,28.739-13.934,33.965-31.352,27.433,16.982-38.319,16.982-38.319L1021,384.034S1041.476,379.68,1042.343,392.743Z" transform="translate(-280.638 -122.566)" fill="#ffb9b9"/>
  <path id="Trazado_354" data-name="Trazado 354" d="M833.367,209.578h-4.354a10.027,10.027,0,0,0-9.58-1.306c-5.225,2.177-17.418-.871-17.418.435s-13.5-3.919-19.159-1.306-26.127,3.484-26.127,3.484-8.273,20.9-2.613,24.82,13.934.871,17.853,3.919,11.321-.435,13.934,3.484,12.193,10.886,14.37,6.532-2.177-8.273,6.967-3.484,23.514,4.79,23.514,4.79Z" transform="translate(-220.147 -77.872)" fill="#d5d5d5"/>
  <path id="Trazado_355" data-name="Trazado 355" d="M938.22,135.239c-3.653-.844-7.445.091-11.146.7s-7.778.806-10.908-1.258c-2.312-1.525-3.733-4.047-5.067-6.473a7.451,7.451,0,0,1-1.09-2.856c-.157-1.794.984-3.432,2.2-4.764,5.63-6.189,13.858-9.576,22.156-10.652a38.279,38.279,0,0,1,20.23,2.47,26.467,26.467,0,0,1,14.19,14.238,40.44,40.44,0,0,1,2.119,10.168,30.375,30.375,0,0,1,.143,7.7,33.011,33.011,0,0,1-1.492,5.579l-4.1,12.386a8.163,8.163,0,0,1-1.613,3.193,2.791,2.791,0,0,1-3.268.716,10.172,10.172,0,0,0,.147-4.109,3.467,3.467,0,0,0-2.736-2.759c-1.512-.16-2.8,1.012-4.238,1.516a5.213,5.213,0,0,1-6.582-3.918c-.226-1.416.154-2.932-.383-4.262-.629-1.558-2.3-2.374-3.549-3.494a8.17,8.17,0,0,1-2.242-8.49c.335-1.031,1.283-1.5,1.093-2.684C941.829,136.63,939.539,135.543,938.22,135.239Z" transform="translate(-260.08 -53.307)" fill="#2f2e41"/>
  <rect id="Rectángulo_116" data-name="Rectángulo 116" width="185.264" height="203.193" transform="translate(378.745 176.926)" fill="#f2f2f2"/>
  <rect id="Rectángulo_117" data-name="Rectángulo 117" width="185.264" height="203.193" transform="translate(397.421 157.503)" fill="none" stroke="#3f3d56" stroke-miterlimit="10" stroke-width="2"/>
  <path id="Trazado_356" data-name="Trazado 356" d="M556,227.5V382.883H706.153" transform="translate(-140.65 -57.297)" fill="none" stroke="#3f3d56" stroke-miterlimit="10" stroke-width="2"/>
  <rect id="Rectángulo_118" data-name="Rectángulo 118" width="33.616" height="53.786" transform="translate(423.567 271.052)" fill="#575a89"/>
  <rect id="Rectángulo_119" data-name="Rectángulo 119" width="33.616" height="90.391" transform="translate(472.124 234.448)" fill="#3f3d56"/>
  <rect id="Rectángulo_120" data-name="Rectángulo 120" width="33.616" height="132.972" transform="translate(520.682 191.867)" fill="#ff9400"/>
  <rect id="Rectángulo_121" data-name="Rectángulo 121" width="9.989" height="9.989" transform="translate(413.109 337.773)" fill="#ff9400"/>
  <rect id="Rectángulo_122" data-name="Rectángulo 122" width="9.989" height="9.989" transform="translate(427.537 337.773)" fill="#3f3d56"/>
  <rect id="Rectángulo_123" data-name="Rectángulo 123" width="9.989" height="9.989" transform="translate(441.966 337.773)" fill="#575a89"/>
  <rect id="Rectángulo_124" data-name="Rectángulo 124" width="38.846" height="1.575" transform="translate(525.164 342.111)" fill="#3f3d56"/>
  <rect id="Rectángulo_125" data-name="Rectángulo 125" width="38.846" height="1.575" transform="translate(525.164 346.836)" fill="#3f3d56"/>
  <rect id="Rectángulo_126" data-name="Rectángulo 126" width="38.846" height="1.575" transform="translate(525.164 351.56)" fill="#3f3d56"/>
  <path id="Trazado_357" data-name="Trazado 357" d="M759.677,212.278a13.875,13.875,0,0,1,12.98,15.446c-.778,7.158-3.648,16.065-12.69,19.486-16.111,6.1-15.24-28.3-12.192-29.61C749.806,216.728,753,211.987,759.677,212.278Z" transform="translate(-218.595 -79.29)" fill="#ffb9b9"/>
  <path id="Trazado_358" data-name="Trazado 358" d="M1032.152,227.854l4.79,2.326s10.451,21.337,10.886,24.385,7.4,14.37,4.79,17.418-6.532,10.886-3.919,13.934,8.709,15.241,8.709,19.595-6.532,16.111-2.177,17.418,3.048,18.289,2.177,19.595-12.192,22.643-12.192,22.643-2.177-24.385-23.514-14.37c0,0-1.742-12.192,0-13.063s6.1-6.1,2.613-6.967-8.273-11.321-7.4-12.628,3.048-3.048.871-4.354-3.919-8.709-3.484-10.015-4.79-7.4-4.79-7.4Z" transform="translate(-285.254 -83.234)" fill="#d5d5d5"/>
</svg>
